<svg xmlns="http://www.w3.org/2000/svg" xmlns:xlink="http://www.w3.org/1999/xlink" viewBox="0 0 176.4 200.63"><defs><style>.cls-1{fill:none;}.cls-2{isolation:isolate;}.cls-3{clip-path:url(#clip-path);}.cls-4{fill:#23395b;}.cls-5{clip-path:url(#clip-path-2);}.cls-6{fill:#00a896;}.cls-7{clip-path:url(#clip-path-3);}.cls-8{fill:#d81e5b;}</style><clipPath id="clip-path"><polygon class="cls-1" points="0.28 146.97 0 49.15 85.13 0 85.4 97.82 0.28 146.97"/></clipPath><clipPath id="clip-path-2"><polygon class="cls-1" points="86.43 200.63 1.85 151.48 86.98 102.34 171.55 151.49 86.43 200.63"/></clipPath><clipPath id="clip-path-3"><polygon class="cls-1" points="91 98.82 91.28 1 176.4 50.15 176.13 147.97 91 98.82"/></clipPath></defs><title>Recurso 2</title><g id="Capa_2" data-name="Capa 2"><g id="Capa_1-2" data-name="Capa 1"><g class="cls-2"><g class="cls-3"><path class="cls-4" d="M19.13,114.31,19,60l47.29-27.3,0,10.87L28.47,65.38l0,10.86L66.33,54.4l0,10.87L28.53,87.11l.06,21.74-9.46,5.46M85.13,0,0,49.15.28,147,85.4,97.82,85.13,0"/></g></g><g class="cls-2"><g class="cls-5"><path class="cls-6" d="M82.06,137.83,58.42,151.48l28.19,16.39,23.65-13.65c0-2.19,0-3.28,0-5.47L91.93,138.09l-9.87-.26m4.49,41-47-27.31L77.4,129.64H96.25L124.45,146c0,4.36,0,6.55-.07,10.91L86.55,178.79M87,102.34,1.85,151.48l84.58,49.15,85.12-49.14L87,102.34"/></g></g><g class="cls-2"><g class="cls-7"><path class="cls-8" d="M110,88q9.52-21.72,19.07-43.43L138.51,50q9.38,32.64,18.76,65.27l-23.64-13.65,0-10.87,9.16,5.29q-4.55-16.23-9.08-32.47-6.5,15.31-13,30.63L110,88M176.4,50.15,91.28,1,91,98.82,176.13,148l.27-97.82"/></g></g></g></g></svg>